<?xml version="1.0" encoding="UTF-8" standalone="no"?> <!-- Created with Vectornator for iOS (http://vectornator.io/) --><!DOCTYPE svg PUBLIC "-//W3C//DTD SVG 1.1//EN" "http://www.w3.org/Graphics/SVG/1.1/DTD/svg11.dtd">
<svg style="fill-rule:nonzero;clip-rule:evenodd;stroke-linecap:round;stroke-linejoin:round;" xmlns:vectornator="http://vectornator.io" height="100%" xml:space="preserve" viewBox="0 0 174.82 240.79" width="100%" xmlns:xlink="http://www.w3.org/1999/xlink" xmlns="http://www.w3.org/2000/svg" version="1.1">
<metadata>
<vectornator:setting key="WDGuidesVisible" value="true"/>
<vectornator:setting key="WDDynamicGuides" value="false"/>
<vectornator:setting key="WDIsolateActiveLayer" value="false"/>
<vectornator:setting key="WDSnapToPoints" value="false"/>
<vectornator:setting value="false" key="WDCMYKEnabledKey"/>
<vectornator:setting value="Pixels" key="WDUnits"/>
<vectornator:setting value="false" key="IsTimeLapseWatermarkDisabled"/>
<vectornator:setting value="true" key="UndoHistoryDisabled"/>
<vectornator:setting key="VNSnapToGuides" value="true"/>
<vectornator:setting key="WDSnapToGrid" value="false"/>
<vectornator:setting key="WDOutlineMode" value="false"/>
<vectornator:setting value="true" key="WDRulersVisible"/>
<vectornator:setting value="false" key="WDSnapToEdges"/>
<vectornator:setting value="false" key="WDDisplayWhiteBackground"/>
<vectornator:setting value="true" key="VNDimensionsVisible"/>
</metadata>
<defs/>
<g vectornator:layerName="Ebene 1" id="Ebene 1">
<path stroke-linecap="butt" d="M15.5193+170.63L85.677+188.819L42.5074+200.583L10+192.155L15.5193+170.63Z" stroke="#32342f" fill="none" stroke-linejoin="miter" opacity="1" stroke-width="7"/>
<path stroke-linecap="butt" d="M10.2164+209.051L159.279+170.417L164.817+191.788L15.7553+230.422L10.2164+209.051Z" stroke="#32342f" stroke-width="7" fill="none" opacity="1" stroke-linejoin="miter"/>
<path stroke-width="7" fill="none" opacity="1" stroke="#32342f" d="M145.222+130.892C145.222+130.34+145.222+129.788+145.222+128.684C145.222+128.132+145.222+128.132+145.222+128.132C145.222+114.334+140.254+101.639+132.527+91.7048C131.975+90.0491+131.424+87.8414+131.424+86.1856C134.183+70.7317+138.047+51.9662+117.625+37.6162C119.833+50.8624+117.625+64.6605+106.587+64.6605C95.5484+64.6605+106.035+45.895+95.5484+29.3373C90.0292+20.5065+78.9907+9.46798+62.4329+10.0199C85.0618+23.2661+75.1272+65.2124+67.9522+70.1798C56.9136+78.4586+56.9136+54.1739+40.3559+54.1739C46.979+57.4855+43.6674+79.0106+39.804+87.2894C37.0443+92.8087+32.077+103.295+29.8693+118.749C29.3174+122.061+28.7655+125.372+28.7655+128.684C28.7655+129.236+28.7655+129.236+28.7655+129.788C28.7655+130.34+28.7655+130.892+28.7655+131.443L28.7655+131.443C30.4212+161.799+58.5694+181.117+89.4772+181.117C121.489+180.565+144.118+161.799+145.222+130.892L145.222+130.892Z" stroke-linecap="butt" stroke-linejoin="round"/>
<path stroke-width="7" stroke-linecap="butt" stroke-linejoin="round" d="M101.068+114.334C104.379+123.717+103.827+130.892+95.5484+130.892C83.958+130.892+81.7503+123.717+84.5099+118.749C96.1003+96.1202+93.3407+92.8087+84.5099+81.2183C89.4772+106.607+62.4329+109.366+62.4329+142.482C62.4329+157.936+74.5753+170.078+90.0292+170.078C105.483+170.078+117.625+157.936+117.625+142.482C118.177+135.307+114.314+122.613+101.068+114.334Z" opacity="1" stroke="#32342f" fill="none"/>
<path d="M364.267+10C328.701+10+299.87+22.3564+299.87+37.5987C299.87+52.8411+328.701+65.1975+364.267+65.1975C399.832+65.1975+428.664+52.8411+428.664+37.5987C428.664+22.3564+399.832+10+364.267+10ZM272.271+101.996C236.705+101.996+207.874+114.352+207.874+129.595C207.874+144.837+236.705+157.193+272.271+157.193C307.836+157.193+336.668+144.837+336.668+129.595C336.668+114.352+307.836+101.996+272.271+101.996ZM336.668+166.393C336.668+181.627+307.836+193.992+272.271+193.992C236.705+193.992+207.874+181.627+207.874+166.393" fill="none" stroke-width="7" stroke-linecap="butt" stroke="#32342f" opacity="1" stroke-linejoin="miter"/>
<path opacity="1" stroke-linejoin="miter" d="M207.874+129.595L207.874+203.191C207.874+218.426+236.705+230.79+272.271+230.79C307.836+230.79+336.668+218.426+336.668+203.191C336.668+200.891+336.668+129.595+336.668+129.595M428.664+74.3971C428.664+89.6316+399.832+101.996+364.267+101.996C328.701+101.996+299.87+89.6316+299.87+74.3971" stroke="#32342f" fill="none" stroke-width="7" stroke-linecap="butt"/>
<path opacity="1" stroke-width="7" stroke-linejoin="miter" fill="none" stroke="#32342f" stroke-linecap="butt" d="M428.664+111.195C428.664+126.43+399.832+138.794+364.267+138.794C354.247+138.794+344.77+137.818+336.318+136.069"/>
<path fill="none" stroke-linecap="butt" stroke="#32342f" stroke-width="7" d="M336.647+172.934C345.02+174.642+354.389+175.592+364.267+175.592C399.832+175.592+428.664+163.228+428.664+147.994L428.664+37.5988M299.87+37.5988L299.87+104.296" stroke-linejoin="miter" opacity="1"/>
<path fill="none" stroke="#32342f" stroke-width="7" stroke-linejoin="miter" d="M131.004+200.571L164.539+209.265L159.02+230.79L87.198+212.17L131.004+200.571Z" stroke-linecap="butt" opacity="1"/>
</g>
</svg>
