<?xml version="1.0" encoding="UTF-8" standalone="no"?> <!-- Created with Vectornator for iOS (http://vectornator.io/) --><!DOCTYPE svg PUBLIC "-//W3C//DTD SVG 1.1//EN" "http://www.w3.org/Graphics/SVG/1.1/DTD/svg11.dtd">
<svg xml:space="preserve" width="100%" xmlns:vectornator="http://vectornator.io" version="1.1" xmlns="http://www.w3.org/2000/svg" xmlns:xlink="http://www.w3.org/1999/xlink" height="100%" style="fill-rule:nonzero;clip-rule:evenodd;stroke-linecap:round;stroke-linejoin:round;" viewBox="0 0 240.79 240.79">
<metadata>
<vectornator:setting key="WDGuidesVisible" value="true"/>
<vectornator:setting key="WDDynamicGuides" value="false"/>
<vectornator:setting value="false" key="WDIsolateActiveLayer"/>
<vectornator:setting key="WDSnapToPoints" value="false"/>
<vectornator:setting key="WDCMYKEnabledKey" value="false"/>
<vectornator:setting value="Pixels" key="WDUnits"/>
<vectornator:setting key="IsTimeLapseWatermarkDisabled" value="false"/>
<vectornator:setting key="UndoHistoryDisabled" value="true"/>
<vectornator:setting value="true" key="VNSnapToGuides"/>
<vectornator:setting key="WDSnapToGrid" value="false"/>
<vectornator:setting key="WDOutlineMode" value="false"/>
<vectornator:setting value="true" key="WDRulersVisible"/>
<vectornator:setting value="false" key="WDSnapToEdges"/>
<vectornator:setting key="WDDisplayWhiteBackground" value="false"/>
<vectornator:setting value="true" key="VNDimensionsVisible"/>
</metadata>
<defs/>
<g vectornator:layerName="Ebene 1" id="Ebene 1">
<path fill="none" stroke-linejoin="miter" d="M166.393+10C130.827+10+101.996+22.3564+101.996+37.5987C101.996+52.8411+130.827+65.1975+166.393+65.1975C201.958+65.1975+230.79+52.8411+230.79+37.5987C230.79+22.3564+201.958+10+166.393+10ZM74.3971+101.996C38.8316+101.996+10+114.352+10+129.595C10+144.837+38.8316+157.193+74.3971+157.193C109.963+157.193+138.794+144.837+138.794+129.595C138.794+114.352+109.963+101.996+74.3971+101.996ZM138.794+166.393C138.794+181.627+109.963+193.992+74.3971+193.992C38.8315+193.992+10+181.627+10+166.393" opacity="1" stroke-width="7" stroke="#32342f" stroke-linecap="butt"/>
<path stroke-width="7" stroke="#32342f" stroke-linecap="butt" stroke-linejoin="miter" d="M10+129.595L10+203.191C10+218.426+38.8315+230.79+74.3971+230.79C109.963+230.79+138.794+218.426+138.794+203.191C138.794+200.891+138.794+129.595+138.794+129.595M230.79+74.3971C230.79+89.6316+201.959+101.996+166.393+101.996C130.827+101.996+101.996+89.6316+101.996+74.3971" opacity="1" fill="none"/>
<path stroke="#32342f" fill="none" stroke-linejoin="miter" stroke-linecap="butt" opacity="1" d="M230.79+111.195C230.79+126.43+201.959+138.794+166.393+138.794C156.374+138.794+146.896+137.818+138.445+136.069" stroke-width="7"/>
<path stroke-linecap="butt" stroke-linejoin="miter" stroke="#32342f" stroke-width="7" fill="none" opacity="1" d="M138.773+172.934C147.147+174.642+156.515+175.592+166.393+175.592C201.959+175.592+230.79+163.228+230.79+147.994L230.79+37.5988M101.996+37.5988L101.996+104.296"/>
</g>
</svg>
