<?xml version="1.0" encoding="UTF-8" standalone="no"?> <!-- Created with Vectornator for iOS (http://vectornator.io/) --><!DOCTYPE svg PUBLIC "-//W3C//DTD SVG 1.1//EN" "http://www.w3.org/Graphics/SVG/1.1/DTD/svg11.dtd">
<svg style="fill-rule:nonzero;clip-rule:evenodd;stroke-linecap:round;stroke-linejoin:round;" xmlns:xlink="http://www.w3.org/1999/xlink" xml:space="preserve" height="100%" viewBox="0 0 240.66 240.79" xmlns:vectornator="http://vectornator.io" xmlns="http://www.w3.org/2000/svg" version="1.1" width="100%">
<metadata>
<vectornator:setting key="WDSnapToPoints" value="false"/>
<vectornator:setting value="false" key="WDSnapToEdges"/>
<vectornator:setting value="false" key="WDCMYKEnabledKey"/>
<vectornator:setting key="UndoHistoryDisabled" value="true"/>
<vectornator:setting key="VNDimensionsVisible" value="true"/>
<vectornator:setting value="false" key="IsTimeLapseWatermarkDisabled"/>
<vectornator:setting key="VNSnapToGuides" value="true"/>
<vectornator:setting value="Pixels" key="WDUnits"/>
<vectornator:setting key="WDSnapToGrid" value="false"/>
<vectornator:setting value="false" key="WDOutlineMode"/>
<vectornator:setting key="WDGuidesVisible" value="true"/>
<vectornator:setting value="false" key="WDDynamicGuides"/>
<vectornator:setting value="false" key="WDDisplayWhiteBackground"/>
<vectornator:setting key="WDRulersVisible" value="true"/>
<vectornator:setting value="false" key="WDIsolateActiveLayer"/>
</metadata>
<defs/>
<g id="Ebene 1" vectornator:layerName="Ebene 1">
<path stroke-linecap="round" opacity="1" d="M161.659+62.5914L178.204+79.1372L78.9367+178.401L62.3914+161.855L161.659+62.5914Z" stroke-width="7" stroke-linejoin="round" stroke="#32342f" fill="none"/>
<path stroke="#32342f" opacity="1" stroke-width="7" d="M31.0897+130.553L110.364+209.827C112.52+211.983+112.52+215.474+110.364+217.625L98.86+229.129C96.7038+231.285+93.213+231.285+91.0622+229.129L11.7881+149.855C9.63189+147.698+9.63189+144.208+11.7881+142.057L23.2918+130.553C25.4426+128.402+28.9389+128.402+31.0897+130.553Z" fill="none" stroke-linejoin="round" stroke-linecap="round"/>
<path d="M26.5455+164.612L76.178+214.244L61.2497+229.173C59.0934+231.329+55.6026+231.329+53.4518+229.173L11.6172+187.338C9.46094+185.182+9.46094+181.691+11.6172+179.54L26.5455+164.612Z" opacity="1" stroke="#32342f" fill="none" stroke-width="7" stroke-linejoin="round" stroke-linecap="round"/>
<path stroke="#32342f" opacity="1" fill="none" stroke-linejoin="round" stroke-width="7" d="M24.2624+199.983L40.8066+216.528L29.7772+227.557C25.4702+231.864+18.4885+231.864+14.1815+227.557L13.233+226.608C8.92601+222.301+8.92601+215.32+13.233+211.013L24.2624+199.983ZM209.744+110.678L129.985+30.9187C127.829+28.7624+127.829+25.2716+129.985+23.1209L141.489+11.6172C143.645+9.46094+147.136+9.46094+149.287+11.6172L229.046+91.3766C231.202+93.5328+231.202+97.0236+229.046+99.1744L217.542+110.678C215.392+112.834+211.901+112.834+209.744+110.678Z" stroke-linecap="round"/>
<path stroke-linejoin="round" opacity="1" d="M214.046+76.3765L164.413+26.7441L179.342+11.8157C181.498+9.65947+184.989+9.65947+187.14+11.8157L228.974+53.6504C231.131+55.8066+231.131+59.2974+228.974+61.4482L214.046+76.3765Z" fill="none" stroke="#32342f" stroke-width="7" stroke-linecap="round"/>
<path stroke-linejoin="round" fill="none" opacity="1" stroke-linecap="round" stroke="#32342f" stroke-width="7" d="M216.329+41.0051L199.785+24.461L210.814+13.4315C215.121+9.12454+222.103+9.12454+226.41+13.4315L227.358+14.3801C231.665+18.6871+231.665+25.6687+227.358+29.9757L216.329+41.0051Z"/>
<path stroke-linecap="butt" stroke="#32342f" opacity="1" fill="none" stroke-width="7" stroke-linejoin="miter" d="M498.315+230.79L337.741+230.79C326.651+230.79+317.669+221.808+317.669+210.718L317.669+30.0718C317.669+18.9821+326.651+10+337.741+10L498.315+10L498.315+230.79Z"/>
<path fill="none" stroke-linecap="butt" opacity="1" stroke-width="7" d="M317.669+210.718C317.669+199.629+326.651+190.646+337.741+190.646L498.315+190.646M357.813+60.1795L468.208+60.1795" stroke-linejoin="miter" stroke="#32342f"/>
<path stroke-linejoin="miter" stroke-width="7" opacity="1" stroke="#32342f" stroke-linecap="butt" fill="none" d="M653.839+32.0753C653.839+44.2666+663.719+54.158+675.907+54.158C688.12+54.158+697.997+44.2666+697.997+32.0753C697.997+19.8914+688.12+10+675.907+10C663.719+10+653.839+19.8914+653.839+32.0753ZM653.839+101.996L672.683+120.84C674.755+122.912+677.563+124.075+680.492+124.075L714.034+124.075C718.847+124.075+723.23+120.612+723.712+115.825C724.26+110.316+719.951+105.676+714.556+105.676L686.17+105.676L665.53+84.616M598.281+134.577L578.034+160.873L540.39+160.873C534.414+160.873+529.052+165.348+528.739+171.32C528.408+177.686+533.472+182.952+539.764+182.952L586.038+182.952C589.357+182.952+592.496+181.462+594.594+178.89L615.767+152.921"/>
<path stroke-linejoin="miter" stroke-linecap="butt" d="M661.199+219.751L661.199+161.988C661.199+158.93+659.929+156.008+657.696+153.922L634.656+132.399L664.687+87.7622C669.224+81.0171+667.436+71.8727+660.691+67.3318L648.246+58.9565C644.603+56.5057+640.312+55.1957+635.922+55.1957L591.19+55.1957C588.261+55.1957+585.453+56.3585+583.385+58.4303L555.989+85.8267C552.585+89.2305+551.933+94.7797+554.98+98.5037C558.484+102.787+564.813+103.023+568.629+99.2102L592.382+75.4569L624.169+78.4743L601.994+111.435C594.557+122.485+596.776+137.381+607.101+145.79L639.12+171.857L639.12+219.751C639.12+225.848+644.062+230.79+650.159+230.79L650.159+230.79C656.257+230.79+661.199+225.848+661.199+219.751Z" fill="none" stroke="#32342f" stroke-width="7" opacity="1"/>
<path stroke-linecap="butt" stroke-linejoin="miter" opacity="1" stroke-width="7" fill="none" d="M765.354+170.63L835.512+188.819L792.342+200.583L759.835+192.155L765.354+170.63Z" stroke="#32342f"/>
<path opacity="1" fill="none" d="M760.051+209.051L909.113+170.417L914.652+191.788L765.59+230.422L760.051+209.051Z" stroke-width="7" stroke-linejoin="miter" stroke-linecap="butt" stroke="#32342f"/>
<path stroke-linecap="butt" d="M895.056+130.892C895.056+130.34+895.056+129.788+895.056+128.684C895.056+128.132+895.056+128.132+895.056+128.132C895.056+114.334+890.089+101.639+882.362+91.7048C881.81+90.0491+881.258+87.8414+881.258+86.1856C884.018+70.7317+887.881+51.9662+867.46+37.6162C869.668+50.8624+867.46+64.6605+856.422+64.6605C845.383+64.6605+855.87+45.895+845.383+29.3373C839.864+20.5065+828.825+9.46798+812.268+10.0199C834.897+23.2661+824.962+65.2124+817.787+70.1798C806.748+78.4586+806.748+54.1739+790.191+54.1739C796.814+57.4855+793.502+79.0106+789.639+87.2894C786.879+92.8087+781.912+103.295+779.704+118.749C779.152+122.061+778.6+125.372+778.6+128.684C778.6+129.236+778.6+129.236+778.6+129.788C778.6+130.34+778.6+130.892+778.6+131.443L778.6+131.443C780.256+161.799+808.404+181.117+839.312+181.117C871.324+180.565+893.953+161.799+895.056+130.892L895.056+130.892Z" stroke="#32342f" stroke-linejoin="miter" opacity="1" stroke-width="7" fill="none"/>
<path opacity="1" stroke="#32342f" stroke-linejoin="miter" stroke-width="7" d="M850.902+114.334C854.214+123.717+853.662+130.892+845.383+130.892C833.793+130.892+831.585+123.717+834.345+118.749C845.935+96.1202+843.175+92.8087+834.345+81.2183C839.312+106.607+812.268+109.366+812.268+142.482C812.268+157.936+824.41+170.078+839.864+170.078C855.318+170.078+867.46+157.936+867.46+142.482C868.012+135.307+864.149+122.613+850.902+114.334Z" stroke-linecap="butt" fill="none"/>
<path opacity="1" stroke-linecap="butt" stroke-linejoin="miter" fill="none" stroke-width="7" stroke="#32342f" d="M1114.1+10C1078.54+10+1049.7+22.3564+1049.7+37.5987C1049.7+52.8411+1078.54+65.1975+1114.1+65.1975C1149.67+65.1975+1178.5+52.8411+1178.5+37.5987C1178.5+22.3564+1149.67+10+1114.1+10ZM1022.11+101.996C986.54+101.996+957.709+114.352+957.709+129.595C957.709+144.837+986.54+157.193+1022.11+157.193C1057.67+157.193+1086.5+144.837+1086.5+129.595C1086.5+114.352+1057.67+101.996+1022.11+101.996ZM1086.5+166.393C1086.5+181.627+1057.67+193.992+1022.11+193.992C986.54+193.992+957.709+181.627+957.709+166.393"/>
<path fill="none" stroke-linejoin="miter" stroke="#32342f" d="M957.709+129.595L957.709+203.191C957.709+218.426+986.54+230.79+1022.11+230.79C1057.67+230.79+1086.5+218.426+1086.5+203.191C1086.5+200.891+1086.5+129.595+1086.5+129.595M1178.5+74.3971C1178.5+89.6316+1149.67+101.996+1114.1+101.996C1078.54+101.996+1049.7+89.6316+1049.7+74.3971" opacity="1" stroke-width="7" stroke-linecap="butt"/>
<path opacity="1" d="M1178.5+111.195C1178.5+126.43+1149.67+138.794+1114.1+138.794C1104.08+138.794+1094.6+137.818+1086.15+136.069" stroke="#32342f" stroke-width="7" fill="none" stroke-linejoin="miter" stroke-linecap="butt"/>
<path opacity="1" stroke-linejoin="miter" d="M1086.48+172.934C1094.86+174.642+1104.22+175.592+1114.1+175.592C1149.67+175.592+1178.5+163.228+1178.5+147.994L1178.5+37.5988M1049.7+37.5988L1049.7+104.296" stroke-width="7" fill="none" stroke-linecap="butt" stroke="#32342f"/>
<path d="M880.839+200.571L914.374+209.265L908.855+230.79L837.033+212.17L880.839+200.571Z" stroke="#32342f" stroke-linejoin="miter" fill="none" opacity="1" stroke-linecap="butt" stroke-width="7"/>
</g>
</svg>
