<?xml version="1.0" encoding="UTF-8" standalone="no"?> <!-- Created with Vectornator for iOS (http://vectornator.io/) --><!DOCTYPE svg PUBLIC "-//W3C//DTD SVG 1.1//EN" "http://www.w3.org/Graphics/SVG/1.1/DTD/svg11.dtd">
<svg xmlns="http://www.w3.org/2000/svg" style="fill-rule:nonzero;clip-rule:evenodd;stroke-linecap:round;stroke-linejoin:round;" viewBox="0 0 222.39 240.79" width="100%" xmlns:xlink="http://www.w3.org/1999/xlink" height="100%" version="1.1" xml:space="preserve" xmlns:vectornator="http://vectornator.io">
<metadata>
<vectornator:setting value="false" key="WDOutlineMode"/>
<vectornator:setting value="true" key="WDRulersVisible"/>
<vectornator:setting value="true" key="UndoHistoryDisabled"/>
<vectornator:setting key="WDSnapToGrid" value="false"/>
<vectornator:setting value="false" key="WDIsolateActiveLayer"/>
<vectornator:setting key="WDDisplayWhiteBackground" value="false"/>
<vectornator:setting key="IsTimeLapseWatermarkDisabled" value="false"/>
<vectornator:setting key="WDSnapToPoints" value="false"/>
<vectornator:setting key="WDCMYKEnabledKey" value="false"/>
<vectornator:setting key="VNSnapToGuides" value="true"/>
<vectornator:setting key="WDGuidesVisible" value="true"/>
<vectornator:setting key="WDDynamicGuides" value="false"/>
<vectornator:setting key="WDSnapToEdges" value="false"/>
<vectornator:setting value="Pixels" key="WDUnits"/>
<vectornator:setting key="VNDimensionsVisible" value="true"/>
</metadata>
<defs/>
<g vectornator:layerName="Ebene 1" id="Ebene 1">
<path stroke-width="17" stroke="#f0f8ff" d="M10+10L27.6446+205.489L111.195+230.788L194.744+205.489L212.389+10L10+10Z" opacity="1" stroke-linecap="butt" fill="none" stroke-linejoin="miter"/>
<path fill="#f0f8ff" d="M168.047+55.9975L54.3048+55.9975L60.9652+111.195L142.749+111.195L137.45+155.205L111.195+165.232L84.9392+155.205L81.8297+129.594L63.1731+129.594L67.8281+168.379L111.195+184.956L154.561+168.379L163.632+92.7955L77.5795+92.7955L75.2429+74.3965L165.84+74.3965L168.047+55.9975Z" opacity="1"/>
<path d="M334.664+137.687L358.005+137.687L358.589+152.276L382.514+160.445L406.438+152.276L408.189+126.017L356.838+126.017L355.671+102.676L409.356+102.676L411.107+79.3344L330.58+79.3344L328.829+55.9932L435.615+55.9932L432.697+102.676L428.612+169.781L382.514+184.953L336.415+169.781C336.415+169.781+334.664+137.687+334.664+137.687Z" opacity="1" fill="#f0f8ff"/>
<path fill="none" d="M280.757+10L298.402+205.489L381.952+230.788L465.502+205.489L483.146+10L280.757+10Z" opacity="1" stroke-width="17" stroke-linejoin="miter" stroke-linecap="butt" stroke="#f0f8ff"/>
<path d="M580.757+10L598.402+205.489L681.952+230.788L765.502+205.489L783.146+10L580.757+10Z" stroke-linejoin="miter" fill="none" stroke="#f0f8ff" opacity="1" stroke-width="17" stroke-linecap="butt"/>
<path opacity="1" d="M650.477+55.9932L650.477+154.92L615.757+145.293L615.757+169.82L670.317+184.953L670.317+55.9932L650.477+55.9932ZM747.966+75.8332L749.677+55.9932L690.157+55.9932L690.157+140.313L724.877+134.331L723.637+152.931L690.157+162.132L690.157+184.953L739.757+171.313L744.985+110.553L709.997+115.513L709.997+75.8332L747.966+75.8332Z" fill="#f0f8ff"/>
</g>
</svg>
